<svg xmlns="http://www.w3.org/2000/svg" style="display:none">

  <symbol id="drawing" viewBox="0 0 24 24">
    <path d="m9.311,23.229c-.274.493-.785.771-1.312.771-.247,0-.496-.061-.727-.188C2.65,21.244,0,16.938,0,12,0,5.383,5.383,0,12,0c.574,0,1.151.041,1.713.122.82.117,1.389.878,1.271,1.697-.118.821-.875,1.395-1.698,1.271-.421-.061-.854-.091-1.287-.091C7.038,3,3,7.037,3,12c0,3.817,2.088,7.166,5.729,9.188.724.402.985,1.315.583,2.04Zm12.87-14.213c-.82.117-1.39.877-1.272,1.697.061.422.091.855.091,1.287,0,2.757-2.243,5-5,5-2.599,0-4.789-2.026-4.985-4.614-.063-.825-.789-1.445-1.609-1.382-.826.063-1.445.784-1.382,1.61.315,4.142,3.819,7.386,7.977,7.386,4.411,0,8-3.589,8-8,0-.574-.041-1.15-.122-1.713-.118-.82-.875-1.395-1.698-1.271Zm-9.155.529v.955c0,.276.224.5.5.5h.955c1.149,0,2.252-.457,3.064-1.269l5.715-5.715c.85-.85,1.013-2.236.252-3.167-.875-1.07-2.456-1.129-3.409-.176l-5.808,5.808c-.813.813-1.269,1.915-1.269,3.064Z"/>
  </symbol>

  <symbol id="grid" viewBox="0 0 24 24">
    <path d="M0,3v8H11V0H3A3,3,0,0,0,0,3ZM3,3H8V8H3Z"/><path d="M21,0H13V11H24V3A3,3,0,0,0,21,0Zm0,8H16V3h5Z"/><path d="M0,21a3,3,0,0,0,3,3h8V13H0Zm3-5H8v5H3Z"/><path d="M13,24h8a3,3,0,0,0,3-3V13H13Zm3-8h5v5H16Z"/>
  </symbol>

  <symbol id="tokens" viewBox="0 0 24 24">
    <path d="M20,20V8.462C20,5.722,18.231.427,11.541,0A2.424,2.424,0,0,0,9.05,1.687c-.621,2-1.576,3.24-2.917,3.784A3.37,3.37,0,0,0,4,8.6,2.406,2.406,0,0,0,6.4,11H9.437A4.808,4.808,0,0,1,7.16,12.794,5.285,5.285,0,0,0,4,17.573V20a2,2,0,0,0,0,4H20a2,2,0,0,0,0-4ZM7,17.573A2.253,2.253,0,0,1,8.391,15.53a7.318,7.318,0,0,0,4.625-5.783A1.5,1.5,0,0,0,11.536,8H7.81a8.333,8.333,0,0,0,3.955-4.968A5.477,5.477,0,0,1,17,8.462V20H7Z"/>
  </symbol>

  <symbol id="settings" viewBox="0 0 512 512">
    <path d="M228.267,56c-17.455-37.114-61.692-53.05-98.805-35.595C113.814,27.765,101.226,40.353,93.867,56H32C14.327,56,0,70.327,0,88l0,0c0,17.673,14.327,32,32,32h61.76c17.455,37.114,61.692,53.05,98.805,35.595c15.647-7.359,28.235-19.948,35.595-35.595H480c17.673,0,32-14.327,32-32l0,0c0-17.673-14.327-32-32-32H228.267z"/>
    <path d="M351.04,181.333c-28.765,0.051-54.931,16.659-67.221,42.667H32c-17.673,0-32,14.327-32,32l0,0c0,17.673,14.327,32,32,32h251.733c17.455,37.114,61.692,53.05,98.805,35.595c15.647-7.359,28.235-19.948,35.595-35.595H480c17.673,0,32-14.327,32-32l0,0c0-17.673-14.327-32-32-32h-61.76C405.953,197.999,379.798,181.393,351.04,181.333z"/>
    <path d="M160.96,349.333c-28.758,0.059-54.913,16.666-67.2,42.667H32c-17.673,0-32,14.327-32,32l0,0c0,17.673,14.327,32,32,32h61.76c17.455,37.114,61.692,53.05,98.805,35.595c15.647-7.359,28.235-19.948,35.595-35.595H480c17.673,0,32-14.327,32-32l0,0c0-17.673-14.327-32-32-32H228.267C215.963,365.965,189.756,349.352,160.96,349.333z"/>
  </symbol>

  <symbol id="pen" viewBox="0 0 24 24">
    <path d="m23.561,7.439c-.586-.586-1.535-.586-2.121,0l-1.439,1.439-4.879-4.879,1.439-1.439c.586-.585.586-1.536,0-2.121-.586-.586-1.535-.586-2.121,0l-2.282,2.282-5.333,2.133c-1.626.651-2.841,1.988-3.334,3.668L.129,19.98c-.324,1.101-.021,2.289.791,3.1.597.597,1.397.918,2.216.918.295,0,.592-.042.884-.127l11.458-3.361c1.68-.493,3.018-1.708,3.668-3.334l2.133-5.333,2.282-2.282c.586-.585.586-1.536,0-2.121Zm-7.2,8.621c-.307.766-.936,1.338-1.728,1.57l-8.693,2.55,4.216-4.216c.114.016.226.035.344.035,1.381,0,2.5-1.119,2.5-2.5s-1.119-2.5-2.5-2.5-2.5,1.119-2.5,2.5c0,.118.019.231.035.344l-4.216,4.216,2.55-8.693c.232-.791.804-1.42,1.57-1.727l4.7-1.88,5.601,5.601-1.88,4.699Z"/>
  </symbol>

  <symbol id="rectangle" viewBox="0 0 24 24">
    <path d="M18.5,0H5.5A5.506,5.506,0,0,0,0,5.5v13A5.506,5.506,0,0,0,5.5,24h13A5.506,5.506,0,0,0,24,18.5V5.5A5.506,5.506,0,0,0,18.5,0ZM21,18.5A2.5,2.5,0,0,1,18.5,21H5.5A2.5,2.5,0,0,1,3,18.5V5.5A2.5,2.5,0,0,1,5.5,3h13A2.5,2.5,0,0,1,21,5.5Z"/>
  </symbol>

  <symbol id="circle" viewBox="0 0 24 24">
    <path d="M12,0A12,12,0,1,0,24,12,12.013,12.013,0,0,0,12,0Zm0,21a9,9,0,1,1,9-9A9.01,9.01,0,0,1,12,21Z"/>
  </symbol>

  <symbol id="line" viewBox="0 0 24 24">
    <path d="M22.5,14H1.5c-.83,0-1.5-.67-1.5-1.5s.67-1.5,1.5-1.5H22.5c.83,0,1.5,.67,1.5,1.5s-.67,1.5-1.5,1.5Z"/>
  </symbol>

  <symbol id="eraser" viewBox="0 0 24 24">
    <path d="m22.5,20h-6.894l6.782-6.782c1.039-1.039,1.611-2.42,1.611-3.89s-.572-2.85-1.611-3.889l-2.828-2.829c-2.144-2.143-5.634-2.143-7.783.005L1.611,12.868c-2.145,2.145-2.145,5.634,0,7.778l.742.743c1.039,1.039,2.42,1.611,3.889,1.611h16.258c.828,0,1.5-.671,1.5-1.5s-.672-1.5-1.5-1.5ZM13.903,4.732c.487-.488,1.128-.731,1.769-.731s1.28.244,1.768.731l2.828,2.829c.473.472.732,1.1.732,1.767s-.26,1.296-.732,1.768l-4.275,4.275-6.346-6.346,4.257-4.293Zm-7.661,15.268c-.658,0-1.302-.267-1.768-.732l-.742-.743c-.975-.975-.975-2.561.005-3.541l3.797-3.829,6.337,6.337-2.507,2.507h-5.122Z"/>
  </symbol>

  <symbol id="trash" viewBox="0 0 24 24">
    <path d="m15.561,11.561l-1.439,1.439,1.439,1.439c.586.586.586,1.535,0,2.121-.293.293-.677.439-1.061.439s-.768-.146-1.061-.439l-1.439-1.439-1.439,1.439c-.293.293-.677.439-1.061.439s-.768-.146-1.061-.439c-.586-.586-.586-1.535,0-2.121l1.439-1.439-1.439-1.439c-.586-.586-.586-1.535,0-2.121s1.535-.586,2.121,0l1.439,1.439,1.439-1.439c.586-.586,1.535-.586,2.121,0s.586,1.535,0,2.121Zm8.439-7.061c0,.828-.671,1.5-1.5,1.5h-.62l-1.08,12.957c-.235,2.828-2.643,5.043-5.481,5.043h-6.639c-2.838,0-5.246-2.215-5.481-5.043l-1.08-12.957h-.62c-.829,0-1.5-.672-1.5-1.5s.671-1.5,1.5-1.5h4.757c.619-1.746,2.287-3,4.243-3h3c1.956,0,3.624,1.254,4.243,3h4.757c.829,0,1.5.672,1.5,1.5Zm-5.13,1.5H5.13l1.059,12.707c.107,1.286,1.202,2.293,2.492,2.293h6.639c1.29,0,2.384-1.007,2.492-2.293l1.059-12.707Z"/>
  </symbol>

  <symbol id="close" viewBox="0 0 24 24">
    <path d="m16.061,10.061l-1.939,1.939,1.939,1.939c.586.586.586,1.535,0,2.121-.293.293-.677.439-1.061.439s-.768-.146-1.061-.439l-1.939-1.939-1.939,1.939c-.293.293-.677.439-1.061.439s-.768-.146-1.061-.439c-.586-.586-.586-1.535,0-2.121l1.939-1.939-1.939-1.939c-.586-.586-.586-1.535,0-2.121s1.535-.586,2.121,0l1.939,1.939,1.939-1.939c.586-.586,1.535-.586,2.121,0s.586,1.535,0,2.121Zm7.939,1.939c0,6.617-5.383,12-12,12S0,18.617,0,12,5.383,0,12,0s12,5.383,12,12Zm-3,0c0-4.963-4.037-9-9-9S3,7.037,3,12s4.038,9,9,9,9-4.037,9-9Z"/>
  </symbol>

  <symbol id="set-grid" viewBox="0 0 24 24">
    <path d="M22.717,16.559L7.442,1.282C6.171,.012,4.351-.351,2.691,.338,1.031,1.025,0,2.568,0,4.365v14.135c0,3.032,2.467,5.5,5.5,5.5h14.135c1.797,0,3.34-1.031,4.028-2.691s.325-3.48-.945-4.75Zm-1.827,3.603c-.082,.196-.413,.839-1.256,.839H5.5c-1.378,0-2.5-1.121-2.5-2.5V4.365c0-.843,.642-1.175,.839-1.256,.093-.039,.295-.107,.545-.107,.28,0,.622,.087,.937,.401l2.688,2.689-1.08,1.08c-.586,.586-.586,1.535,0,2.121,.293,.293,.677,.439,1.061,.439s.768-.146,1.061-.439l1.08-1.08,1.768,1.768-1.08,1.08c-.586,.586-.586,1.535,0,2.121,.293,.293,.677,.439,1.061,.439s.768-.146,1.061-.439l1.08-1.08,1.759,1.759-1.08,1.098c-.581,.591-.573,1.54,.018,2.121,.292,.287,.672,.431,1.052,.431,.388,0,.776-.149,1.069-.448l1.062-1.08,2.697,2.697c.596,.596,.376,1.284,.294,1.481Zm-10.33-4.722c.429,.429,.558,1.074,.325,1.635-.232,.561-.779,.926-1.386,.926h-2c-.829,0-1.5-.672-1.5-1.5v-2c0-.606,.365-1.153,.926-1.386,.561-.233,1.207-.104,1.635,.325l2,2Z"/>
  </symbol>

  <symbol id="obstacle" viewBox="0 0 24 24">
    <path d="M22.5,2c-.829,0-1.5,.671-1.5,1.5v.5H3v-.5c0-.829-.671-1.5-1.5-1.5s-1.5,.671-1.5,1.5V20.5c0,.828,.671,1.5,1.5,1.5s1.5-.672,1.5-1.5v-4.5H21v4.5c0,.828,.671,1.5,1.5,1.5s1.5-.672,1.5-1.5V3.5c0-.829-.671-1.5-1.5-1.5ZM11.121,13l6-6h2.758l-6,6h-2.758Zm-7,0l6-6h2.758l-6,6h-2.758Zm1.758-6l-2.879,2.879v-2.879h2.879Zm12.242,6l2.879-2.879v2.879h-2.879Z"/>
  </symbol>

  <symbol id="palette" viewBox="0 0 24 24">
    <circle cx="16" cy="8" r="2"/><circle cx="9" cy="8" r="2"/><circle cx="8" cy="15" r="2"/><path d="M24.036,10.928A12.144,12.144,0,0,0,12.5.008,12,12,0,1,0,12.083,24c.338,0,.669-.022,1-.049a1.5,1.5,0,0,0,1.376-1.508l-.03-3.425a2.859,2.859,0,0,1,4.88-2.047l.1.1a2.38,2.38,0,0,0,2.19.644A2.344,2.344,0,0,0,23.3,16.25,11.909,11.909,0,0,0,24.036,10.928Zm-3.249,3.366a5.86,5.86,0,0,0-9.359,4.75l.017,1.933A9,9,0,0,1,12.082,3c.1,0,.212,0,.318.006a9.105,9.105,0,0,1,8.648,8.185A8.964,8.964,0,0,1,20.787,14.294Z"/>
  </symbol>

  <symbol id="image" viewBox="0 0 24 24">
    <path d="M9,7.5c0-.83,.67-1.5,1.5-1.5s1.5,.67,1.5,1.5-.67,1.5-1.5,1.5-1.5-.67-1.5-1.5Zm15-.5v6c0,2.76-2.24,5-5,5H10c-2.76,0-5-2.24-5-5V7c0-2.76,2.24-5,5-5h9c2.76,0,5,2.24,5,5ZM7,13c0,.77,.29,1.47,.77,2.01l5.24-5.24c.98-.98,2.69-.98,3.67,0l1.04,1.04c.23,.23,.62,.23,.85,0l3.43-3.43v-.38c0-1.65-1.35-3-3-3H10c-1.65,0-3,1.35-3,3v6Zm15,0v-2.79l-2.02,2.02c-.98,.98-2.69,.98-3.67,0l-1.04-1.04c-.23-.23-.61-.23-.85,0l-4.79,4.79c.12,.02,.24,.02,.37,.02h9c1.65,0,3-1.35,3-3Zm-5,7H5c-1.65,0-3-1.35-3-3v-6c0-.74,.27-1.45,.77-2,.37-.41,.33-1.04-.08-1.41-.41-.37-1.04-.33-1.41,.08-.82,.92-1.28,2.1-1.28,3.34v6c0,2.76,2.24,5,5,5h12c.55,0,1-.45,1-1s-.45-1-1-1Z"/>
  </symbol>

  <symbol id="copy" viewBox="0 0 24 24">
    <path d="m13.5 19h-8a5.506 5.506 0 0 1 -5.5-5.5v-8a5.506 5.506 0 0 1 5.5-5.5h8a5.506 5.506 0 0 1 5.5 5.5v8a5.506 5.506 0 0 1 -5.5 5.5zm-8-16a2.5 2.5 0 0 0 -2.5 2.5v8a2.5 2.5 0 0 0 2.5 2.5h8a2.5 2.5 0 0 0 2.5-2.5v-8a2.5 2.5 0 0 0 -2.5-2.5zm18.5 15.5v-11.5a1.5 1.5 0 0 0 -3 0v11.5a2.5 2.5 0 0 1 -2.5 2.5h-11.5a1.5 1.5 0 0 0 0 3h11.5a5.506 5.506 0 0 0 5.5-5.5z"/>
  </symbol>

  <symbol id="check" viewBox="0 0 507.506 507.506">
    <path d="M163.865,436.934c-14.406,0.006-28.222-5.72-38.4-15.915L9.369,304.966c-12.492-12.496-12.492-32.752,0-45.248l0,0c12.496-12.492,32.752-12.492,45.248,0l109.248,109.248L452.889,79.942c12.496-12.492,32.752-12.492,45.248,0l0,0c12.492,12.496,12.492,32.752,0,45.248L202.265,421.019C192.087,431.214,178.271,436.94,163.865,436.934z"/>
  </symbol>

  <symbol id="save" viewBox="0 0 24 24">
    <path d="M17.5,0H6.5A5.507,5.507,0,0,0,1,5.5V20.472a3.5,3.5,0,0,0,6.044,2.4l4.912-5.2,5.013,5.25A3.5,3.5,0,0,0,23,20.51V5.5A5.507,5.507,0,0,0,17.5,0ZM20,20.51a.5.5,0,0,1-.861.345l-6.1-6.391A1.5,1.5,0,0,0,11.95,14h0a1.5,1.5,0,0,0-1.086.47l-6,6.345a.479.479,0,0,1-.549.122A.471.471,0,0,1,4,20.472V5.5A2.5,2.5,0,0,1,6.5,3h11A2.5,2.5,0,0,1,20,5.5Z"/>
  </symbol>

  <symbol id="folder" viewBox="0 0 512 512">
    <path d="M394.667,64H266.496c-1.723-0.008-3.419-0.425-4.949-1.216L198.72,29.867c-10.698-5.6-22.592-8.528-34.667-8.533h-46.72C52.561,21.404,0.071,73.895,0,138.667v234.667c0.071,64.772,52.561,117.263,117.333,117.333h277.333c64.772-0.071,117.263-52.561,117.333-117.333v-192C511.929,116.561,459.439,64.071,394.667,64z M448,373.333c0,29.455-23.878,53.333-53.333,53.333H117.333C87.878,426.667,64,402.789,64,373.333V169.963h382.72c0.839,3.732,1.268,7.545,1.28,11.371V373.333z"/>
  </symbol>

  <symbol id="rotate" viewBox="0 0 513.806 513.806">
    <path d="M66.074,228.731C81.577,123.379,179.549,50.542,284.901,66.045c35.944,5.289,69.662,20.626,97.27,44.244l-24.853,24.853c-8.33,8.332-8.328,21.84,0.005,30.17c3.999,3.998,9.423,6.245,15.078,6.246h97.835c11.782,0,21.333-9.551,21.333-21.333V52.39c-0.003-11.782-9.556-21.331-21.338-21.329c-5.655,0.001-11.079,2.248-15.078,6.246L427.418,65.04C321.658-29.235,159.497-19.925,65.222,85.835c-33.399,37.467-55.073,83.909-62.337,133.573c-2.864,17.607,9.087,34.202,26.693,37.066c1.586,0.258,3.188,0.397,4.795,0.417C50.481,256.717,64.002,244.706,66.074,228.731z"/>
    <path d="M479.429,256.891c-16.108,0.174-29.629,12.185-31.701,28.16C432.225,390.403,334.253,463.24,228.901,447.738c-35.944-5.289-69.662-20.626-97.27-44.244l24.853-24.853c8.33-8.332,8.328-21.84-0.005-30.17c-3.999-3.998-9.423-6.245-15.078-6.246H43.568c-11.782,0-21.333,9.551-21.333,21.333v97.835c0.003,11.782,9.556,21.331,21.338,21.329c5.655-0.001,11.079-2.248,15.078-6.246l27.733-27.733c105.735,94.285,267.884,85.004,362.17-20.732c33.417-37.475,55.101-83.933,62.363-133.615c2.876-17.605-9.064-34.208-26.668-37.084C482.655,257.051,481.044,256.91,479.429,256.891z"/>
  </symbol>

</svg>
